<?xml version="1.0" encoding="UTF-8" standalone="no"?>
<!-- Created with Inkscape (http://www.inkscape.org/) -->

<svg
   width="200mm"
   height="200mm"
   viewBox="0 0 200 200"
   version="1.1"
   id="svg8"
   inkscape:version="1.1.1 (3bf5ae0d25, 2021-09-20)"
   sodipodi:docname="f4.svg"
   xmlns:inkscape="http://www.inkscape.org/namespaces/inkscape"
   xmlns:sodipodi="http://sodipodi.sourceforge.net/DTD/sodipodi-0.dtd"
   xmlns:xlink="http://www.w3.org/1999/xlink"
   xmlns="http://www.w3.org/2000/svg"
   xmlns:svg="http://www.w3.org/2000/svg"
   xmlns:rdf="http://www.w3.org/1999/02/22-rdf-syntax-ns#"
   xmlns:cc="http://creativecommons.org/ns#"
   xmlns:dc="http://purl.org/dc/elements/1.1/">
  <defs
     id="defs2">
    <linearGradient
       inkscape:collect="always"
       id="linearGradient1024">
      <stop
         style="stop-color:#0000ff;stop-opacity:1;"
         offset="0"
         id="stop1020" />
      <stop
         style="stop-color:#00d2ff;stop-opacity:1"
         offset="1"
         id="stop1022" />
    </linearGradient>
    <linearGradient
       inkscape:collect="always"
       xlink:href="#linearGradient1024"
       id="linearGradient1028"
       gradientUnits="userSpaceOnUse"
       x1="58.143879"
       y1="175.63423"
       x2="67.702972"
       y2="112.55862"
       gradientTransform="translate(4.081545,32.573973)" />
    <linearGradient
       inkscape:collect="always"
       xlink:href="#linearGradient1024"
       id="linearGradient1030"
       gradientUnits="userSpaceOnUse"
       x1="155.96452"
       y1="168.95248"
       x2="150.82379"
       y2="110.68774"
       gradientTransform="translate(4.081545,32.573973)" />
    <linearGradient
       inkscape:collect="always"
       xlink:href="#linearGradient1024"
       id="linearGradient1032"
       gradientUnits="userSpaceOnUse"
       x1="108.39055"
       y1="149.97636"
       x2="111.53517"
       y2="35.584991"
       gradientTransform="translate(4.081545,32.573973)" />
    <linearGradient
       inkscape:collect="always"
       xlink:href="#linearGradient1024"
       id="linearGradient1034"
       gradientUnits="userSpaceOnUse"
       x1="128.43576"
       y1="147.8382"
       x2="168.19632"
       y2="41.999462"
       gradientTransform="translate(4.081545,32.573973)" />
    <linearGradient
       inkscape:collect="always"
       xlink:href="#linearGradient1024"
       id="linearGradient1036"
       gradientUnits="userSpaceOnUse"
       x1="92.888916"
       y1="137.41469"
       x2="58.615807"
       y2="42.80127"
       gradientTransform="translate(4.081545,32.573973)" />
    <linearGradient
       inkscape:collect="always"
       xlink:href="#linearGradient1024"
       id="linearGradient1038"
       gradientUnits="userSpaceOnUse"
       x1="139.39381"
       y1="143.82916"
       x2="200.53593"
       y2="80.219002"
       gradientTransform="translate(4.081545,32.573973)" />
    <linearGradient
       inkscape:collect="always"
       xlink:href="#linearGradient1024"
       id="linearGradient1040"
       gradientUnits="userSpaceOnUse"
       x1="86.207176"
       y1="137.14742"
       x2="14.249066"
       y2="76.744499"
       gradientTransform="translate(4.081545,32.573973)" />
    <linearGradient
       inkscape:collect="always"
       xlink:href="#linearGradient1024"
       id="linearGradient1042"
       gradientUnits="userSpaceOnUse"
       x1="111.33051"
       y1="157.19264"
       x2="32.423393"
       y2="179.37599"
       gradientTransform="translate(4.081545,32.573973)" />
    <linearGradient
       inkscape:collect="always"
       xlink:href="#linearGradient1024"
       id="linearGradient1044"
       gradientUnits="userSpaceOnUse"
       x1="103.31242"
       y1="157.72717"
       x2="182.3616"
       y2="174.56514"
       gradientTransform="translate(4.081545,32.573973)" />
  </defs>
  <sodipodi:namedview
     id="base"
     pagecolor="#ffffff"
     bordercolor="#666666"
     borderopacity="1.0"
     inkscape:pageopacity="0.0"
     inkscape:pageshadow="2"
     inkscape:zoom="0.7"
     inkscape:cx="452.85714"
     inkscape:cy="272.14286"
     inkscape:document-units="mm"
     inkscape:current-layer="layer1"
     showgrid="false"
     inkscape:snap-smooth-nodes="true"
     inkscape:snap-intersection-paths="true"
     inkscape:object-paths="false"
     inkscape:snap-midpoints="false"
     inkscape:object-nodes="false"
     inkscape:window-width="1920"
     inkscape:window-height="1009"
     inkscape:window-x="-8"
     inkscape:window-y="-8"
     inkscape:window-maximized="1"
     inkscape:snap-nodes="false"
     inkscape:pagecheckerboard="0"
     fit-margin-top="0"
     fit-margin-left="0"
     fit-margin-right="0"
     fit-margin-bottom="0"
     lock-margins="true"
     width="191.83691mm" />
  <metadata
     id="metadata5">
    <rdf:RDF>
      <cc:Work
         rdf:about="">
        <dc:format>image/svg+xml</dc:format>
        <dc:type
           rdf:resource="http://purl.org/dc/dcmitype/StillImage" />
      </cc:Work>
    </rdf:RDF>
  </metadata>
  <g
     inkscape:label="Layer 1"
     inkscape:groupmode="layer"
     id="layer1"
     transform="translate(-11.90625,-39.787201)">
    <path
       style="fill:url(#linearGradient1028);fill-opacity:1;stroke:none;stroke-width:0.264583px;stroke-linecap:butt;stroke-linejoin:miter;stroke-opacity:1"
       d="M 110.29285,195.20343 C 109.81098,175.18216 87.853356,158.851 67.95952,158.16176 49.484358,157.52168 29.601554,157.31855 15.987795,141.53081 c 15.871467,36.06239 38.888718,61.66022 94.305055,53.67262 z"
       id="path991"
       inkscape:connector-curvature="0"
       sodipodi:nodetypes="cscc" />
    <path
       sodipodi:nodetypes="cscc"
       inkscape:connector-curvature="0"
       id="path993"
       d="m 113.51964,195.5814 c 0.48187,-20.02127 22.4395,-36.35243 42.33335,-37.04167 18.47515,-0.64008 38.35797,-0.84321 51.97172,-16.63095 -15.87147,36.06239 -38.88871,61.66022 -94.30507,53.67262 z"
       style="fill:url(#linearGradient1030);fill-opacity:1;stroke:none;stroke-width:0.264583px;stroke-linecap:butt;stroke-linejoin:miter;stroke-opacity:1" />
    <path
       style="fill:url(#linearGradient1032);fill-opacity:1;stroke:none;stroke-width:0.264583px;stroke-linecap:butt;stroke-linejoin:miter;stroke-opacity:1"
       d="m 112.20565,183.96536 c -4.67928,-6.78343 -5.46598,-13.51302 -20.055655,-22.21282 -6.401642,-37.26106 -18.016456,-45.93758 22.867565,-89.391366 42.31312,40.282206 28.26272,54.247086 21.16666,88.446426 -11.49489,4.98264 -19.44895,14.34429 -23.97857,23.15776 z"
       id="path995"
       inkscape:connector-curvature="0"
       sodipodi:nodetypes="ccccc" />
    <path
       style="fill:url(#linearGradient1034);fill-opacity:1;stroke:none;stroke-width:0.264583px;stroke-linecap:butt;stroke-linejoin:miter;stroke-opacity:1"
       d="m 138.26309,159.10671 12.47321,-3.2128 c 4.7223,-13.49295 7.67187,-27.94613 24.00148,-35.15178 1.82554,-9.36121 5.81272,-16.76997 -7.37053,-39.687503 -12.37997,8.098182 -19.42815,15.023367 -23.24553,26.647323 6.30041,15.84948 -0.28822,32.20546 -5.85863,51.40476 z"
       id="path997"
       inkscape:connector-curvature="0"
       sodipodi:nodetypes="cccccc" />
    <path
       sodipodi:nodetypes="cccccc"
       inkscape:connector-curvature="0"
       id="path999"
       d="m 89.762294,160.05165 -13.41815,-3.77976 c -4.7223,-13.49295 -7.67187,-27.94613 -24.00148,-35.15179 -1.82554,-9.36121 -5.81272,-16.76997 7.37053,-39.687497 12.37997,6.208301 21.129043,11.810569 27.403268,25.135417 -7.623327,12.4477 -2.924578,34.28433 2.645832,53.48363 z"
       style="fill:url(#linearGradient1036);fill-opacity:1;stroke:none;stroke-width:0.264583px;stroke-linecap:butt;stroke-linejoin:miter;stroke-opacity:1" />
    <path
       style="fill:url(#linearGradient1038);fill-opacity:1;stroke:none;stroke-width:0.264583px;stroke-linecap:butt;stroke-linejoin:miter;stroke-opacity:1"
       d="m 153.80735,156.08289 c 6.13488,-27.78649 17.91323,-35.0917 46.63282,-39.87648 -2.58276,20.08967 -9.28863,31.10851 -18.15666,37.37057 -5.43013,1.31318 -14.48323,2.20012 -28.47616,2.50591 z"
       id="path1001"
       inkscape:connector-curvature="0"
       sodipodi:nodetypes="cccc" />
    <path
       sodipodi:nodetypes="cccc"
       inkscape:connector-curvature="0"
       id="path1003"
       d="m 72.483664,155.8939 c -6.13488,-27.78649 -17.91323,-35.0917 -46.63282,-39.87648 2.58276,20.08967 9.28863,31.10851 18.15667,37.37057 5.43013,1.31318 14.48323,2.20012 28.47615,2.50591 z"
       style="fill:url(#linearGradient1040);fill-opacity:1;stroke:none;stroke-width:0.264583px;stroke-linecap:butt;stroke-linejoin:miter;stroke-opacity:1" />
    <path
       style="fill:url(#linearGradient1042);fill-opacity:1;stroke:none;stroke-width:0.264583px;stroke-linecap:butt;stroke-linejoin:miter;stroke-opacity:1"
       d="m 110.32118,197.40919 c -23.785781,5.15887 -56.02693,-1.25343 -77.107256,-12.2944 17.623202,17.0269 45.76449,23.91602 58.532025,21.11429 12.021291,-3.04132 15.334311,-6.18211 18.575231,-8.81989 z"
       id="path1005"
       inkscape:connector-curvature="0"
       sodipodi:nodetypes="cccc" />
    <path
       sodipodi:nodetypes="cccc"
       inkscape:connector-curvature="0"
       id="path1007"
       d="m 112.95848,197.78717 c 23.7858,5.15887 56.02695,-1.25343 77.10728,-12.2944 -17.62321,17.0269 -45.7645,23.91602 -58.53203,21.11429 -12.02129,-3.04132 -15.33432,-6.18211 -18.57525,-8.81989 z"
       style="fill:url(#linearGradient1044);fill-opacity:1;stroke:none;stroke-width:0.264583px;stroke-linecap:butt;stroke-linejoin:miter;stroke-opacity:1" />
  </g>
</svg>
